<svg xmlns="http://www.w3.org/2000/svg" width="1500" height="610" viewBox="0 0 1500 610" role="img" aria-labelledby="title description">
  <title id="title">Three stages of the kolam enumeration</title>
  <desc id="description">A legal row that cannot extend, a locally valid disconnected board, and an accepted connected board.</desc>
  <rect width="1500" height="610" fill="#fbf8f1"/>
  <g font-family="Inter, Arial, sans-serif" fill="#2d241f">
    <g>
      <rect x="24" y="24" width="460" height="562" rx="18" fill="#fffdf8" stroke="#d9cabc"/>
      <text x="52" y="67" font-size="16" font-weight="700" fill="#a34f2e" letter-spacing="1.2">IN THE 1,448 ONLY</text>
      <text x="52" y="110" font-family="Georgia, serif" font-size="30">A legal row</text>
      <g transform="translate(74 190) scale(0.82)">
    <rect width="100" height="100" rx="2" fill="#a34f2e"/>
    <path d="M 75 25 A 35.35533905932738 35.35533905932738 0 0 1 75 75 A 35.35533905932738 35.35533905932738 0 0 1 25 75 A 35.35533905932738 35.35533905932738 0 0 1 25 25 A 35.35533905932738 35.35533905932738 0 0 1 75 25 Z" fill="none" stroke="#fff" stroke-width="8" stroke-linecap="round" stroke-linejoin="round"/>
    <circle cx="50" cy="50" r="6" fill="#fff"/>
  </g>
<g transform="translate(160 190) scale(0.82)">
    <rect width="100" height="100" rx="2" fill="#a34f2e"/>
    <path d="M 75 25 A 35.35533905932738 35.35533905932738 0 0 1 75 75 L 50 100 L 25 75 A 35.35533905932738 35.35533905932738 0 0 1 25 25 A 35.35533905932738 35.35533905932738 0 0 1 75 25 Z" fill="none" stroke="#fff" stroke-width="8" stroke-linecap="round" stroke-linejoin="round"/>
    <circle cx="50" cy="50" r="6" fill="#fff"/>
  </g>
<g transform="translate(246 190) scale(0.82)">
    <rect width="100" height="100" rx="2" fill="#a34f2e"/>
    <path d="M 75 25 A 35.35533905932738 35.35533905932738 0 0 1 75 75 A 35.35533905932738 35.35533905932738 0 0 1 25 75 A 35.35533905932738 35.35533905932738 0 0 1 25 25 L 50 0 L 75 25 Z" fill="none" stroke="#fff" stroke-width="8" stroke-linecap="round" stroke-linejoin="round"/>
    <circle cx="50" cy="50" r="6" fill="#fff"/>
  </g>
<g transform="translate(332 190) scale(0.82)">
    <rect width="100" height="100" rx="2" fill="#a34f2e"/>
    <path d="M 75 25 A 35.35533905932738 35.35533905932738 0 0 1 75 75 L 50 100 L 25 75 A 35.35533905932738 35.35533905932738 0 0 1 25 25 L 50 0 L 75 25 Z" fill="none" stroke="#fff" stroke-width="8" stroke-linecap="round" stroke-linejoin="round"/>
    <circle cx="50" cy="50" r="6" fill="#fff"/>
  </g>
      <text x="52" y="412" font-size="18" fill="#6d5f56">
        <tspan x="52" dy="0">Horizontal edges match and the two outer</tspan>
        <tspan x="52" dy="29">bits close, but this row cannot occur in any</tspan>
        <tspan x="52" dy="29">of the 652 complete boards.</tspan>
      </text>
    </g>
    <g>
      <rect x="520" y="24" width="460" height="562" rx="18" fill="#fffdf8" stroke="#d9cabc"/>
      <text x="548" y="67" font-size="16" font-weight="700" fill="#a34f2e" letter-spacing="1.2">IN THE 652, NOT THE 408</text>
      <text x="548" y="110" font-family="Georgia, serif" font-size="30">Locally valid, disconnected</text>
      <g transform="translate(606 142) scale(0.72)">
    <rect width="100" height="100" rx="2" fill="#bd8a38"/>
    <path d="M 75 25 A 35.35533905932738 35.35533905932738 0 0 1 75 75 A 35.35533905932738 35.35533905932738 0 0 1 25 75 A 35.35533905932738 35.35533905932738 0 0 1 25 25 A 35.35533905932738 35.35533905932738 0 0 1 75 25 Z" fill="none" stroke="#fff" stroke-width="8" stroke-linecap="round" stroke-linejoin="round"/>
    <circle cx="50" cy="50" r="6" fill="#fff"/>
  </g>
<g transform="translate(680 142) scale(0.72)">
    <rect width="100" height="100" rx="2" fill="#a34f2e"/>
    <path d="M 75 25 L 100 50 L 75 75 A 35.35533905932738 35.35533905932738 0 0 1 25 75 A 35.35533905932738 35.35533905932738 0 0 1 25 25 A 35.35533905932738 35.35533905932738 0 0 1 75 25 Z" fill="none" stroke="#fff" stroke-width="8" stroke-linecap="round" stroke-linejoin="round"/>
    <circle cx="50" cy="50" r="6" fill="#fff"/>
  </g>
<g transform="translate(754 142) scale(0.72)">
    <rect width="100" height="100" rx="2" fill="#a34f2e"/>
    <path d="M 75 25 L 100 50 L 75 75 A 35.35533905932738 35.35533905932738 0 0 1 25 75 L 0 50 L 25 25 A 35.35533905932738 35.35533905932738 0 0 1 75 25 Z" fill="none" stroke="#fff" stroke-width="8" stroke-linecap="round" stroke-linejoin="round"/>
    <circle cx="50" cy="50" r="6" fill="#fff"/>
  </g>
<g transform="translate(828 142) scale(0.72)">
    <rect width="100" height="100" rx="2" fill="#a34f2e"/>
    <path d="M 75 25 A 35.35533905932738 35.35533905932738 0 0 1 75 75 A 35.35533905932738 35.35533905932738 0 0 1 25 75 L 0 50 L 25 25 A 35.35533905932738 35.35533905932738 0 0 1 75 25 Z" fill="none" stroke="#fff" stroke-width="8" stroke-linecap="round" stroke-linejoin="round"/>
    <circle cx="50" cy="50" r="6" fill="#fff"/>
  </g>
<g transform="translate(606 216) scale(0.72)">
    <rect width="100" height="100" rx="2" fill="#3f6b62"/>
    <path d="M 75 25 A 35.35533905932738 35.35533905932738 0 0 1 75 75 L 50 100 L 25 75 A 35.35533905932738 35.35533905932738 0 0 1 25 25 A 35.35533905932738 35.35533905932738 0 0 1 75 25 Z" fill="none" stroke="#fff" stroke-width="8" stroke-linecap="round" stroke-linejoin="round"/>
    <circle cx="50" cy="50" r="6" fill="#fff"/>
  </g>
<g transform="translate(680 216) scale(0.72)">
    <rect width="100" height="100" rx="2" fill="#74536f"/>
    <path d="M 75 25 L 100 50 L 75 75 L 50 100 L 25 75 A 35.35533905932738 35.35533905932738 0 0 1 25 25 A 35.35533905932738 35.35533905932738 0 0 1 75 25 Z" fill="none" stroke="#fff" stroke-width="8" stroke-linecap="round" stroke-linejoin="round"/>
    <circle cx="50" cy="50" r="6" fill="#fff"/>
  </g>
<g transform="translate(754 216) scale(0.72)">
    <rect width="100" height="100" rx="2" fill="#74536f"/>
    <path d="M 75 25 L 100 50 L 75 75 L 50 100 L 25 75 L 0 50 L 25 25 A 35.35533905932738 35.35533905932738 0 0 1 75 25 Z" fill="none" stroke="#fff" stroke-width="8" stroke-linecap="round" stroke-linejoin="round"/>
    <circle cx="50" cy="50" r="6" fill="#fff"/>
  </g>
<g transform="translate(828 216) scale(0.72)">
    <rect width="100" height="100" rx="2" fill="#74536f"/>
    <path d="M 75 25 A 35.35533905932738 35.35533905932738 0 0 1 75 75 L 50 100 L 25 75 L 0 50 L 25 25 A 35.35533905932738 35.35533905932738 0 0 1 75 25 Z" fill="none" stroke="#fff" stroke-width="8" stroke-linecap="round" stroke-linejoin="round"/>
    <circle cx="50" cy="50" r="6" fill="#fff"/>
  </g>
<g transform="translate(606 290) scale(0.72)">
    <rect width="100" height="100" rx="2" fill="#3f6b62"/>
    <path d="M 75 25 A 35.35533905932738 35.35533905932738 0 0 1 75 75 L 50 100 L 25 75 A 35.35533905932738 35.35533905932738 0 0 1 25 25 L 50 0 L 75 25 Z" fill="none" stroke="#fff" stroke-width="8" stroke-linecap="round" stroke-linejoin="round"/>
    <circle cx="50" cy="50" r="6" fill="#fff"/>
  </g>
<g transform="translate(680 290) scale(0.72)">
    <rect width="100" height="100" rx="2" fill="#74536f"/>
    <path d="M 75 25 L 100 50 L 75 75 L 50 100 L 25 75 A 35.35533905932738 35.35533905932738 0 0 1 25 25 L 50 0 L 75 25 Z" fill="none" stroke="#fff" stroke-width="8" stroke-linecap="round" stroke-linejoin="round"/>
    <circle cx="50" cy="50" r="6" fill="#fff"/>
  </g>
<g transform="translate(754 290) scale(0.72)">
    <rect width="100" height="100" rx="2" fill="#74536f"/>
    <path d="M 75 25 L 100 50 L 75 75 L 50 100 L 25 75 L 0 50 L 25 25 L 50 0 L 75 25 Z" fill="none" stroke="#fff" stroke-width="8" stroke-linecap="round" stroke-linejoin="round"/>
    <circle cx="50" cy="50" r="6" fill="#fff"/>
  </g>
<g transform="translate(828 290) scale(0.72)">
    <rect width="100" height="100" rx="2" fill="#74536f"/>
    <path d="M 75 25 A 35.35533905932738 35.35533905932738 0 0 1 75 75 L 50 100 L 25 75 L 0 50 L 25 25 L 50 0 L 75 25 Z" fill="none" stroke="#fff" stroke-width="8" stroke-linecap="round" stroke-linejoin="round"/>
    <circle cx="50" cy="50" r="6" fill="#fff"/>
  </g>
<g transform="translate(606 364) scale(0.72)">
    <rect width="100" height="100" rx="2" fill="#3f6b62"/>
    <path d="M 75 25 A 35.35533905932738 35.35533905932738 0 0 1 75 75 A 35.35533905932738 35.35533905932738 0 0 1 25 75 A 35.35533905932738 35.35533905932738 0 0 1 25 25 L 50 0 L 75 25 Z" fill="none" stroke="#fff" stroke-width="8" stroke-linecap="round" stroke-linejoin="round"/>
    <circle cx="50" cy="50" r="6" fill="#fff"/>
  </g>
<g transform="translate(680 364) scale(0.72)">
    <rect width="100" height="100" rx="2" fill="#74536f"/>
    <path d="M 75 25 L 100 50 L 75 75 A 35.35533905932738 35.35533905932738 0 0 1 25 75 A 35.35533905932738 35.35533905932738 0 0 1 25 25 L 50 0 L 75 25 Z" fill="none" stroke="#fff" stroke-width="8" stroke-linecap="round" stroke-linejoin="round"/>
    <circle cx="50" cy="50" r="6" fill="#fff"/>
  </g>
<g transform="translate(754 364) scale(0.72)">
    <rect width="100" height="100" rx="2" fill="#74536f"/>
    <path d="M 75 25 L 100 50 L 75 75 A 35.35533905932738 35.35533905932738 0 0 1 25 75 L 0 50 L 25 25 L 50 0 L 75 25 Z" fill="none" stroke="#fff" stroke-width="8" stroke-linecap="round" stroke-linejoin="round"/>
    <circle cx="50" cy="50" r="6" fill="#fff"/>
  </g>
<g transform="translate(828 364) scale(0.72)">
    <rect width="100" height="100" rx="2" fill="#74536f"/>
    <path d="M 75 25 A 35.35533905932738 35.35533905932738 0 0 1 75 75 A 35.35533905932738 35.35533905932738 0 0 1 25 75 L 0 50 L 25 25 L 50 0 L 75 25 Z" fill="none" stroke="#fff" stroke-width="8" stroke-linecap="round" stroke-linejoin="round"/>
    <circle cx="50" cy="50" r="6" fill="#fff"/>
  </g>
      <text x="548" y="486" font-size="18" fill="#6d5f56">
        <tspan x="548" dy="0">Every local rule is satisfied, but the colours</tspan>
        <tspan x="548" dy="29">reveal several nonzero connected components.</tspan>
      </text>
    </g>
    <g>
      <rect x="1016" y="24" width="460" height="562" rx="18" fill="#fffdf8" stroke="#d9cabc"/>
      <text x="1044" y="67" font-size="16" font-weight="700" fill="#a34f2e" letter-spacing="1.2">IN THE ACCEPTED 408</text>
      <text x="1044" y="110" font-family="Georgia, serif" font-size="30">One nonzero network</text>
      <g transform="translate(1102 142) scale(0.72)">
    <rect width="100" height="100" rx="2" fill="#bd8a38"/>
    <path d="M 75 25 A 35.35533905932738 35.35533905932738 0 0 1 75 75 A 35.35533905932738 35.35533905932738 0 0 1 25 75 A 35.35533905932738 35.35533905932738 0 0 1 25 25 A 35.35533905932738 35.35533905932738 0 0 1 75 25 Z" fill="none" stroke="#fff" stroke-width="8" stroke-linecap="round" stroke-linejoin="round"/>
    <circle cx="50" cy="50" r="6" fill="#fff"/>
  </g>
<g transform="translate(1176 142) scale(0.72)">
    <rect width="100" height="100" rx="2" fill="#a34f2e"/>
    <path d="M 75 25 A 35.35533905932738 35.35533905932738 0 0 1 75 75 L 50 100 L 25 75 A 35.35533905932738 35.35533905932738 0 0 1 25 25 A 35.35533905932738 35.35533905932738 0 0 1 75 25 Z" fill="none" stroke="#fff" stroke-width="8" stroke-linecap="round" stroke-linejoin="round"/>
    <circle cx="50" cy="50" r="6" fill="#fff"/>
  </g>
<g transform="translate(1250 142) scale(0.72)">
    <rect width="100" height="100" rx="2" fill="#a34f2e"/>
    <path d="M 75 25 L 100 50 L 75 75 A 35.35533905932738 35.35533905932738 0 0 1 25 75 A 35.35533905932738 35.35533905932738 0 0 1 25 25 A 35.35533905932738 35.35533905932738 0 0 1 75 25 Z" fill="none" stroke="#fff" stroke-width="8" stroke-linecap="round" stroke-linejoin="round"/>
    <circle cx="50" cy="50" r="6" fill="#fff"/>
  </g>
<g transform="translate(1324 142) scale(0.72)">
    <rect width="100" height="100" rx="2" fill="#a34f2e"/>
    <path d="M 75 25 A 35.35533905932738 35.35533905932738 0 0 1 75 75 L 50 100 L 25 75 L 0 50 L 25 25 A 35.35533905932738 35.35533905932738 0 0 1 75 25 Z" fill="none" stroke="#fff" stroke-width="8" stroke-linecap="round" stroke-linejoin="round"/>
    <circle cx="50" cy="50" r="6" fill="#fff"/>
  </g>
<g transform="translate(1102 216) scale(0.72)">
    <rect width="100" height="100" rx="2" fill="#a34f2e"/>
    <path d="M 75 25 L 100 50 L 75 75 L 50 100 L 25 75 A 35.35533905932738 35.35533905932738 0 0 1 25 25 A 35.35533905932738 35.35533905932738 0 0 1 75 25 Z" fill="none" stroke="#fff" stroke-width="8" stroke-linecap="round" stroke-linejoin="round"/>
    <circle cx="50" cy="50" r="6" fill="#fff"/>
  </g>
<g transform="translate(1176 216) scale(0.72)">
    <rect width="100" height="100" rx="2" fill="#a34f2e"/>
    <path d="M 75 25 L 100 50 L 75 75 L 50 100 L 25 75 L 0 50 L 25 25 L 50 0 L 75 25 Z" fill="none" stroke="#fff" stroke-width="8" stroke-linecap="round" stroke-linejoin="round"/>
    <circle cx="50" cy="50" r="6" fill="#fff"/>
  </g>
<g transform="translate(1250 216) scale(0.72)">
    <rect width="100" height="100" rx="2" fill="#a34f2e"/>
    <path d="M 75 25 A 35.35533905932738 35.35533905932738 0 0 1 75 75 A 35.35533905932738 35.35533905932738 0 0 1 25 75 L 0 50 L 25 25 A 35.35533905932738 35.35533905932738 0 0 1 75 25 Z" fill="none" stroke="#fff" stroke-width="8" stroke-linecap="round" stroke-linejoin="round"/>
    <circle cx="50" cy="50" r="6" fill="#fff"/>
  </g>
<g transform="translate(1324 216) scale(0.72)">
    <rect width="100" height="100" rx="2" fill="#a34f2e"/>
    <path d="M 75 25 A 35.35533905932738 35.35533905932738 0 0 1 75 75 L 50 100 L 25 75 A 35.35533905932738 35.35533905932738 0 0 1 25 25 L 50 0 L 75 25 Z" fill="none" stroke="#fff" stroke-width="8" stroke-linecap="round" stroke-linejoin="round"/>
    <circle cx="50" cy="50" r="6" fill="#fff"/>
  </g>
<g transform="translate(1102 290) scale(0.72)">
    <rect width="100" height="100" rx="2" fill="#a34f2e"/>
    <path d="M 75 25 L 100 50 L 75 75 L 50 100 L 25 75 A 35.35533905932738 35.35533905932738 0 0 1 25 25 L 50 0 L 75 25 Z" fill="none" stroke="#fff" stroke-width="8" stroke-linecap="round" stroke-linejoin="round"/>
    <circle cx="50" cy="50" r="6" fill="#fff"/>
  </g>
<g transform="translate(1176 290) scale(0.72)">
    <rect width="100" height="100" rx="2" fill="#a34f2e"/>
    <path d="M 75 25 L 100 50 L 75 75 A 35.35533905932738 35.35533905932738 0 0 1 25 75 L 0 50 L 25 25 L 50 0 L 75 25 Z" fill="none" stroke="#fff" stroke-width="8" stroke-linecap="round" stroke-linejoin="round"/>
    <circle cx="50" cy="50" r="6" fill="#fff"/>
  </g>
<g transform="translate(1250 290) scale(0.72)">
    <rect width="100" height="100" rx="2" fill="#a34f2e"/>
    <path d="M 75 25 L 100 50 L 75 75 L 50 100 L 25 75 L 0 50 L 25 25 A 35.35533905932738 35.35533905932738 0 0 1 75 25 Z" fill="none" stroke="#fff" stroke-width="8" stroke-linecap="round" stroke-linejoin="round"/>
    <circle cx="50" cy="50" r="6" fill="#fff"/>
  </g>
<g transform="translate(1324 290) scale(0.72)">
    <rect width="100" height="100" rx="2" fill="#a34f2e"/>
    <path d="M 75 25 A 35.35533905932738 35.35533905932738 0 0 1 75 75 L 50 100 L 25 75 L 0 50 L 25 25 L 50 0 L 75 25 Z" fill="none" stroke="#fff" stroke-width="8" stroke-linecap="round" stroke-linejoin="round"/>
    <circle cx="50" cy="50" r="6" fill="#fff"/>
  </g>
<g transform="translate(1102 364) scale(0.72)">
    <rect width="100" height="100" rx="2" fill="#a34f2e"/>
    <path d="M 75 25 L 100 50 L 75 75 A 35.35533905932738 35.35533905932738 0 0 1 25 75 A 35.35533905932738 35.35533905932738 0 0 1 25 25 L 50 0 L 75 25 Z" fill="none" stroke="#fff" stroke-width="8" stroke-linecap="round" stroke-linejoin="round"/>
    <circle cx="50" cy="50" r="6" fill="#fff"/>
  </g>
<g transform="translate(1176 364) scale(0.72)">
    <rect width="100" height="100" rx="2" fill="#a34f2e"/>
    <path d="M 75 25 L 100 50 L 75 75 A 35.35533905932738 35.35533905932738 0 0 1 25 75 L 0 50 L 25 25 A 35.35533905932738 35.35533905932738 0 0 1 75 25 Z" fill="none" stroke="#fff" stroke-width="8" stroke-linecap="round" stroke-linejoin="round"/>
    <circle cx="50" cy="50" r="6" fill="#fff"/>
  </g>
<g transform="translate(1250 364) scale(0.72)">
    <rect width="100" height="100" rx="2" fill="#a34f2e"/>
    <path d="M 75 25 A 35.35533905932738 35.35533905932738 0 0 1 75 75 A 35.35533905932738 35.35533905932738 0 0 1 25 75 L 0 50 L 25 25 L 50 0 L 75 25 Z" fill="none" stroke="#fff" stroke-width="8" stroke-linecap="round" stroke-linejoin="round"/>
    <circle cx="50" cy="50" r="6" fill="#fff"/>
  </g>
<g transform="translate(1324 364) scale(0.72)">
    <rect width="100" height="100" rx="2" fill="#a34f2e"/>
    <path d="M 75 25 A 35.35533905932738 35.35533905932738 0 0 1 75 75 A 35.35533905932738 35.35533905932738 0 0 1 25 75 A 35.35533905932738 35.35533905932738 0 0 1 25 25 L 50 0 L 75 25 Z" fill="none" stroke="#fff" stroke-width="8" stroke-linecap="round" stroke-linejoin="round"/>
    <circle cx="50" cy="50" r="6" fill="#fff"/>
  </g>
      <text x="1044" y="486" font-size="18" fill="#6d5f56">
        <tspan x="1044" dy="0">All fifteen nonzero tiles form one component;</tspan>
        <tspan x="1044" dy="29">only the compulsory 0000 loop is isolated.</tspan>
      </text>
    </g>
  </g>
</svg>