<svg xmlns="http://www.w3.org/2000/svg" viewBox="0 0 600 600" role="img" aria-labelledby="title desc">
  <title id="title">Sixteen binary kolam tiles</title>
  <desc id="desc">A four by four field of terracotta tiles with sixteen distinct white kolam patterns.</desc>
  <defs>
    <filter id="shadow" x="-20%" y="-20%" width="140%" height="140%">
      <feDropShadow dx="0" dy="8" stdDeviation="8" flood-color="#5c321f" flood-opacity=".2"/>
    </filter>
    <style>
      .tile{fill:#a9532f}.line{fill:none;stroke:#fffaf1;stroke-width:13;stroke-linecap:square;stroke-linejoin:round}.dot{fill:#fffaf1}
    </style>
  </defs>
  <rect width="600" height="600" rx="32" fill="#eadfce"/>
  <g filter="url(#shadow)" transform="translate(36 36)">
    <g transform="translate(0 0)"><rect class="tile" width="120" height="120" rx="4"/><circle class="line" cx="60" cy="60" r="38"/><circle class="dot" cx="60" cy="60" r="5"/></g>
    <g transform="translate(136 0)"><rect class="tile" width="120" height="120" rx="4"/><path class="line" d="M60 20C86 20 100 38 100 58c0 22-19 37-40 62C39 95 20 80 20 58c0-20 14-38 40-38Z"/><circle class="dot" cx="60" cy="60" r="5"/></g>
    <g transform="translate(272 0)"><rect class="tile" width="120" height="120" rx="4"/><path class="line" d="M0 60C24 34 39 20 61 20c21 0 39 15 39 40s-18 40-39 40C39 100 24 86 0 60Z"/><circle class="dot" cx="60" cy="60" r="5"/></g>
    <g transform="translate(408 0)"><rect class="tile" width="120" height="120" rx="4"/><path class="line" d="M0 60 60 120c25-22 40-38 40-61 0-22-16-39-40-39C38 20 22 36 0 60Z"/><circle class="dot" cx="60" cy="60" r="5"/></g>

    <g transform="translate(0 136)"><rect class="tile" width="120" height="120" rx="4"/><path class="line" d="M60 0C36 24 20 39 20 61c0 23 17 39 40 39s40-16 40-39C100 39 84 24 60 0Z"/><circle class="dot" cx="60" cy="60" r="5"/></g>
    <g transform="translate(136 136)"><rect class="tile" width="120" height="120" rx="4"/><path class="line" d="M60 0C35 23 20 38 20 60s15 37 40 60c25-23 40-38 40-60S85 23 60 0Z"/><circle class="dot" cx="60" cy="60" r="5"/></g>
    <g transform="translate(272 136)"><rect class="tile" width="120" height="120" rx="4"/><path class="line" d="M60 0 0 60c23 25 38 40 61 40 22 0 39-16 39-40C100 38 84 22 60 0Z"/><circle class="dot" cx="60" cy="60" r="5"/></g>
    <g transform="translate(408 136)"><rect class="tile" width="120" height="120" rx="4"/><path class="line" d="M60 0 0 60l60 60 40-40V40Z"/><circle class="dot" cx="60" cy="60" r="5"/></g>

    <g transform="translate(0 272)"><rect class="tile" width="120" height="120" rx="4"/><path class="line" d="M120 60C96 34 81 20 59 20c-21 0-39 15-39 40s18 40 39 40c22 0 37-14 61-40Z"/><circle class="dot" cx="60" cy="60" r="5"/></g>
    <g transform="translate(136 272)"><rect class="tile" width="120" height="120" rx="4"/><path class="line" d="M120 60 60 120C35 98 20 82 20 59c0-22 16-39 40-39 22 0 38 16 60 40Z"/><circle class="dot" cx="60" cy="60" r="5"/></g>
    <g transform="translate(272 272)"><rect class="tile" width="120" height="120" rx="4"/><path class="line" d="M0 60C23 35 38 20 60 20s37 15 60 40c-23 25-38 40-60 40S23 85 0 60Z"/><circle class="dot" cx="60" cy="60" r="5"/></g>
    <g transform="translate(408 272)"><rect class="tile" width="120" height="120" rx="4"/><path class="line" d="M0 60 60 120l60-60-60-40Z"/><circle class="dot" cx="60" cy="60" r="5"/></g>

    <g transform="translate(0 408)"><rect class="tile" width="120" height="120" rx="4"/><path class="line" d="M60 0c24 24 40 39 40 61 0 23-17 39-40 39S20 84 20 61C20 39 36 24 60 0ZM100 60h20"/><circle class="dot" cx="60" cy="60" r="5"/></g>
    <g transform="translate(136 408)"><rect class="tile" width="120" height="120" rx="4"/><path class="line" d="M60 0 120 60l-60 60-40-40V40Z"/><circle class="dot" cx="60" cy="60" r="5"/></g>
    <g transform="translate(272 408)"><rect class="tile" width="120" height="120" rx="4"/><path class="line" d="M60 0 0 60l60 40 60-40Z"/><circle class="dot" cx="60" cy="60" r="5"/></g>
    <g transform="translate(408 408)"><rect class="tile" width="120" height="120" rx="4"/><path class="line" d="M60 0 120 60l-60 60L0 60Z"/><circle class="dot" cx="60" cy="60" r="5"/></g>
  </g>
</svg>

