<svg xmlns="http://www.w3.org/2000/svg" viewBox="0 0 800 800" role="img" aria-labelledby="title desc">
  <title id="title">A kolam drawn on an octahedron</title><desc id="desc">A stylised terracotta octahedron with white kolam curves crossing its triangular faces.</desc>
  <rect width="800" height="800" fill="#f6efe4"/><circle cx="400" cy="400" r="330" fill="#ecd2c3" opacity=".36"/>
  <g stroke="#6d3322" stroke-width="3" stroke-linejoin="round">
    <path d="M400 74 98 399 365 453Z" fill="#8d4028" opacity=".52"/><path d="M400 74 702 399 365 453Z" fill="#9a482c" opacity=".46"/><path d="M400 726 98 399 365 453Z" fill="#74331f" opacity=".5"/><path d="M400 726 702 399 365 453Z" fill="#823923" opacity=".45"/>
    <path d="M400 74 98 399 435 347Z" fill="#b76540"/><path d="M400 74 702 399 435 347Z" fill="#a34f2e"/><path d="M400 726 98 399 435 347Z" fill="#914229"/><path d="M400 726 702 399 435 347Z" fill="#a0522d"/>
    <path d="M400 74 98 399 400 726 702 399Z M98 399 435 347 702 399M400 74 435 347 400 726" fill="none"/><path d="M98 399 365 453 702 399M400 74 365 453 400 726" fill="none" stroke-dasharray="8 10" opacity=".52"/>
  </g>
  <g fill="none" stroke="#fffaf2" stroke-width="22" stroke-linecap="round" stroke-linejoin="round"><path d="M168 401C224 340 278 317 329 347C365 368 377 417 348 450C317 485 257 473 260 423C264 369 341 350 399 382"/><path d="M399 382C454 414 500 468 553 451C608 433 618 378 574 347C535 320 477 335 454 378C430 423 451 493 493 547"/><path d="M493 547C527 592 514 646 470 666"/><path d="M399 382C381 327 365 251 401 171"/></g>
  <g fill="#fffaf2" stroke="#74331f" stroke-opacity=".25" stroke-width="3"><circle cx="300" cy="350" r="11"/><circle cx="500" cy="350" r="11"/><circle cx="300" cy="506" r="11"/><circle cx="500" cy="506" r="11"/></g>
</svg>
