<svg xmlns="http://www.w3.org/2000/svg" viewBox="0 0 960 500" role="img" aria-labelledby="title desc">
  <title id="title">The eight oriented triangular kolam tiles</title>
  <desc id="desc">Eight terracotta equilateral triangles labelled 000 through 111, with smooth white kolam curves and a white centre dot.</desc>
  <rect width="960" height="500" rx="28" fill="#f6efe4"/>
  <defs><filter id="s" x="-20%" y="-20%" width="140%" height="150%"><feDropShadow dx="0" dy="8" stdDeviation="7" flood-color="#44251c" flood-opacity=".13"/></filter><path id="t" d="M100 20 20 158.6 180 158.6Z"/></defs>
  <style>.a{fill:#fffaf2;stroke:#d7bea5}.f{fill:#a0522d;stroke:#74331f;stroke-width:1.4}.c{fill:none;stroke:#fffaf2;stroke-width:10;stroke-linecap:butt;stroke-linejoin:round}.d{fill:#fffaf2;stroke:#74331f;stroke-opacity:.22;stroke-width:1.2}.w{fill:#44251c;font:700 20px ui-monospace,SFMono-Regular,Menlo,monospace;letter-spacing:3px;text-anchor:middle}</style>
  <g transform="translate(20 18)"><rect class="a" width="210" height="220" rx="16" filter="url(#s)"/><use href="#t" class="f"/><path class="c" d="M126.3 127.6C138 107.3 123.4 82 100 82C76.6 82 62 107.3 73.7 127.6C85.4 147.8 114.6 147.8 126.3 127.6"/><circle class="d" cx="100" cy="112.4" r="6"/><text class="w" x="105" y="201">000</text></g>
  <g transform="translate(256 18)"><rect class="a" width="210" height="220" rx="16" filter="url(#s)"/><use href="#t" class="f"/><path class="c" d="M126.3 127.6C138 107.3 123.4 82 100 82C79.2 82 70.5 86.5 60 89.3M60 89.3C62.8 99.8 63.3 109.6 73.7 127.6C85.4 147.8 114.6 147.8 126.3 127.6"/><circle class="d" cx="100" cy="112.4" r="6"/><text class="w" x="105" y="201">001</text></g>
  <g transform="translate(492 18)"><rect class="a" width="210" height="220" rx="16" filter="url(#s)"/><use href="#t" class="f"/><path class="c" d="M126.3 127.6C136.7 109.6 137.2 99.8 140 89.3M140 89.3C129.5 86.5 120.8 82 100 82C76.6 82 62 107.3 73.7 127.6C85.4 147.8 114.6 147.8 126.3 127.6"/><circle class="d" cx="100" cy="112.4" r="6"/><text class="w" x="105" y="201">010</text></g>
  <g transform="translate(728 18)"><rect class="a" width="210" height="220" rx="16" filter="url(#s)"/><use href="#t" class="f"/><path class="c" d="M126.3 127.6C136.7 109.6 137.2 99.8 140 89.3M140 89.3C129.5 86.5 120.8 82 100 82C79.2 82 70.5 86.5 60 89.3M60 89.3C62.8 99.8 63.3 109.6 73.7 127.6C85.4 147.8 114.6 147.8 126.3 127.6"/><circle class="d" cx="100" cy="112.4" r="6"/><text class="w" x="105" y="201">011</text></g>
  <g transform="translate(20 260)"><rect class="a" width="210" height="220" rx="16" filter="url(#s)"/><use href="#t" class="f"/><path class="c" d="M126.3 127.6C138 107.3 123.4 82 100 82C76.6 82 62 107.3 73.7 127.6C84.1 145.6 92.3 150.9 100 158.6M100 158.6C107.7 150.9 115.9 145.6 126.3 127.6"/><circle class="d" cx="100" cy="112.4" r="6"/><text class="w" x="105" y="201">100</text></g>
  <g transform="translate(256 260)"><rect class="a" width="210" height="220" rx="16" filter="url(#s)"/><use href="#t" class="f"/><path class="c" d="M126.3 127.6C138 107.3 123.4 82 100 82C79.2 82 70.5 86.5 60 89.3M60 89.3C62.8 99.8 63.3 109.6 73.7 127.6C84.1 145.6 92.3 150.9 100 158.6M100 158.6C107.7 150.9 115.9 145.6 126.3 127.6"/><circle class="d" cx="100" cy="112.4" r="6"/><text class="w" x="105" y="201">101</text></g>
  <g transform="translate(492 260)"><rect class="a" width="210" height="220" rx="16" filter="url(#s)"/><use href="#t" class="f"/><path class="c" d="M126.3 127.6C136.7 109.6 137.2 99.8 140 89.3M140 89.3C129.5 86.5 120.8 82 100 82C76.6 82 62 107.3 73.7 127.6C84.1 145.6 92.3 150.9 100 158.6M100 158.6C107.7 150.9 115.9 145.6 126.3 127.6"/><circle class="d" cx="100" cy="112.4" r="6"/><text class="w" x="105" y="201">110</text></g>
  <g transform="translate(728 260)"><rect class="a" width="210" height="220" rx="16" filter="url(#s)"/><use href="#t" class="f"/><path class="c" d="M126.3 127.6C136.7 109.6 137.2 99.8 140 89.3M140 89.3C129.5 86.5 120.8 82 100 82C79.2 82 70.5 86.5 60 89.3M60 89.3C62.8 99.8 63.3 109.6 73.7 127.6C84.1 145.6 92.3 150.9 100 158.6M100 158.6C107.7 150.9 115.9 145.6 126.3 127.6"/><circle class="d" cx="100" cy="112.4" r="6"/><text class="w" x="105" y="201">111</text></g>
</svg>
